<svg xmlns="http://www.w3.org/2000/svg" xmlns:xlink="http://www.w3.org/1999/xlink" width="600" zoomAndPan="magnify" viewBox="0 0 450 179.999997" height="240" preserveAspectRatio="xMidYMid meet" version="1.0"><defs><g/><clipPath id="87dcf35f68"><rect x="0" width="450" y="0" height="180"/></clipPath></defs><g transform="matrix(1, 0, 0, 1, 0, 0)"><g clip-path="url(#87dcf35f68)"><g fill="#000000" fill-opacity="1"><g transform="translate(-5.493581, 137.707732)"><g><path d="M 47.71875 -77.40625 C 56.96875 -77.40625 64.457031 -74.609375 70.1875 -69.015625 C 75.925781 -63.421875 78.796875 -55.351562 78.796875 -44.8125 L 78.796875 0 L 66.3125 0 L 66.3125 -43 C 66.3125 -50.59375 64.414062 -56.398438 60.625 -60.421875 C 56.832031 -64.441406 51.65625 -66.453125 45.09375 -66.453125 C 38.425781 -66.453125 33.128906 -64.367188 29.203125 -60.203125 C 25.273438 -56.046875 23.3125 -49.988281 23.3125 -42.03125 L 23.3125 0 L 10.6875 0 L 10.6875 -76.03125 L 23.3125 -76.03125 L 23.3125 -65.203125 C 25.800781 -69.085938 29.195312 -72.09375 33.5 -74.21875 C 37.800781 -76.34375 42.539062 -77.40625 47.71875 -77.40625 Z M 47.71875 -77.40625 "/></g></g></g><g fill="#000000" fill-opacity="1"><g transform="translate(69.270874, 137.707732)"><g><path d="M 17.203125 -88.375 C 14.796875 -88.375 12.757812 -89.207031 11.09375 -90.875 C 9.425781 -92.539062 8.59375 -94.570312 8.59375 -96.96875 C 8.59375 -99.375 9.425781 -101.410156 11.09375 -103.078125 C 12.757812 -104.742188 14.796875 -105.578125 17.203125 -105.578125 C 19.515625 -105.578125 21.476562 -104.742188 23.09375 -103.078125 C 24.71875 -101.410156 25.53125 -99.375 25.53125 -96.96875 C 25.53125 -94.570312 24.71875 -92.539062 23.09375 -90.875 C 21.476562 -89.207031 19.515625 -88.375 17.203125 -88.375 Z M 23.3125 -76.03125 L 23.3125 0 L 10.6875 0 L 10.6875 -76.03125 Z M 23.3125 -76.03125 "/></g></g></g><g fill="#000000" fill-opacity="1"><g transform="translate(89.381964, 137.707732)"><g><path d="M 5.96875 -38.15625 C 5.96875 -46.007812 7.539062 -52.875 10.6875 -58.75 C 13.832031 -64.625 18.203125 -69.179688 23.796875 -72.421875 C 29.390625 -75.660156 35.789062 -77.28125 43 -77.28125 C 52.34375 -77.28125 60.039062 -75.007812 66.09375 -70.46875 C 72.15625 -65.9375 76.160156 -59.648438 78.109375 -51.609375 L 64.515625 -51.609375 C 63.210938 -56.234375 60.6875 -59.882812 56.9375 -62.5625 C 53.195312 -65.25 48.550781 -66.59375 43 -66.59375 C 35.789062 -66.59375 29.96875 -64.117188 25.53125 -59.171875 C 21.09375 -54.222656 18.875 -47.21875 18.875 -38.15625 C 18.875 -29 21.09375 -21.921875 25.53125 -16.921875 C 29.96875 -11.929688 35.789062 -9.4375 43 -9.4375 C 48.550781 -9.4375 53.175781 -10.726562 56.875 -13.3125 C 60.582031 -15.90625 63.128906 -19.609375 64.515625 -24.421875 L 78.109375 -24.421875 C 76.078125 -16.648438 72.007812 -10.425781 65.90625 -5.75 C 59.800781 -1.082031 52.164062 1.25 43 1.25 C 35.789062 1.25 29.390625 -0.367188 23.796875 -3.609375 C 18.203125 -6.847656 13.832031 -11.425781 10.6875 -17.34375 C 7.539062 -23.257812 5.96875 -30.195312 5.96875 -38.15625 Z M 5.96875 -38.15625 "/></g></g></g><g fill="#000000" fill-opacity="1"><g transform="translate(159.568868, 137.707732)"><g><path d="M 80.046875 -40.921875 C 80.046875 -38.515625 79.910156 -35.972656 79.640625 -33.296875 L 18.875 -33.296875 C 19.332031 -25.804688 21.894531 -19.957031 26.5625 -15.75 C 31.238281 -11.539062 36.90625 -9.4375 43.5625 -9.4375 C 49.019531 -9.4375 53.570312 -10.707031 57.21875 -13.25 C 60.875 -15.789062 63.441406 -19.191406 64.921875 -23.453125 L 78.53125 -23.453125 C 76.488281 -16.140625 72.414062 -10.191406 66.3125 -5.609375 C 60.207031 -1.035156 52.625 1.25 43.5625 1.25 C 36.34375 1.25 29.890625 -0.367188 24.203125 -3.609375 C 18.515625 -6.847656 14.050781 -11.445312 10.8125 -17.40625 C 7.582031 -23.375 5.96875 -30.289062 5.96875 -38.15625 C 5.96875 -46.007812 7.539062 -52.894531 10.6875 -58.8125 C 13.832031 -64.738281 18.25 -69.296875 23.9375 -72.484375 C 29.625 -75.679688 36.164062 -77.28125 43.5625 -77.28125 C 50.78125 -77.28125 57.160156 -75.707031 62.703125 -72.5625 C 68.253906 -69.414062 72.53125 -65.085938 75.53125 -59.578125 C 78.539062 -54.078125 80.046875 -47.859375 80.046875 -40.921875 Z M 67.015625 -43.5625 C 67.015625 -48.375 65.945312 -52.515625 63.8125 -55.984375 C 61.6875 -59.453125 58.796875 -62.085938 55.140625 -63.890625 C 51.492188 -65.691406 47.445312 -66.59375 43 -66.59375 C 36.625 -66.59375 31.191406 -64.554688 26.703125 -60.484375 C 22.222656 -56.421875 19.65625 -50.78125 19 -43.5625 Z M 67.015625 -43.5625 "/></g></g></g><g fill="#000000" fill-opacity="1"><g transform="translate(231.559044, 137.707732)"><g><path d="M 5.96875 -38.296875 C 5.96875 -46.054688 7.539062 -52.875 10.6875 -58.75 C 13.832031 -64.625 18.15625 -69.179688 23.65625 -72.421875 C 29.15625 -75.660156 35.28125 -77.28125 42.03125 -77.28125 C 48.695312 -77.28125 54.476562 -75.84375 59.375 -72.96875 C 64.28125 -70.101562 67.9375 -66.5 70.34375 -62.15625 L 70.34375 -76.03125 L 83.109375 -76.03125 L 83.109375 0 L 70.34375 0 L 70.34375 -14.15625 C 67.84375 -9.707031 64.117188 -6.023438 59.171875 -3.109375 C 54.222656 -0.203125 48.460938 1.25 41.890625 1.25 C 35.140625 1.25 29.035156 -0.410156 23.578125 -3.734375 C 18.128906 -7.066406 13.832031 -11.738281 10.6875 -17.75 C 7.539062 -23.769531 5.96875 -30.617188 5.96875 -38.296875 Z M 70.34375 -38.15625 C 70.34375 -43.882812 69.1875 -48.875 66.875 -53.125 C 64.5625 -57.382812 61.4375 -60.644531 57.5 -62.90625 C 53.570312 -65.175781 49.25 -66.3125 44.53125 -66.3125 C 39.8125 -66.3125 35.507812 -65.203125 31.625 -62.984375 C 27.738281 -60.765625 24.640625 -57.523438 22.328125 -53.265625 C 20.023438 -49.015625 18.875 -44.023438 18.875 -38.296875 C 18.875 -32.460938 20.023438 -27.394531 22.328125 -23.09375 C 24.640625 -18.789062 27.738281 -15.503906 31.625 -13.234375 C 35.507812 -10.972656 39.8125 -9.84375 44.53125 -9.84375 C 49.25 -9.84375 53.570312 -10.972656 57.5 -13.234375 C 61.4375 -15.503906 64.5625 -18.789062 66.875 -23.09375 C 69.1875 -27.394531 70.34375 -32.414062 70.34375 -38.15625 Z M 70.34375 -38.15625 "/></g></g></g><g fill="#000000" fill-opacity="1"><g transform="translate(311.317199, 137.707732)"><g><path d="M 23.3125 -102.65625 L 23.3125 0 L 10.6875 0 L 10.6875 -102.65625 Z M 23.3125 -102.65625 "/></g></g></g><g fill="#000000" fill-opacity="1"><g transform="translate(331.428288, 137.707732)"><g><path d="M 26.078125 -65.625 L 26.078125 -20.8125 C 26.078125 -17.113281 26.863281 -14.5 28.4375 -12.96875 C 30.007812 -11.445312 32.738281 -10.6875 36.625 -10.6875 L 45.921875 -10.6875 L 45.921875 0 L 34.546875 0 C 27.515625 0 22.238281 -1.617188 18.71875 -4.859375 C 15.207031 -8.097656 13.453125 -13.414062 13.453125 -20.8125 L 13.453125 -65.625 L 3.609375 -65.625 L 3.609375 -76.03125 L 13.453125 -76.03125 L 13.453125 -95.171875 L 26.078125 -95.171875 L 26.078125 -76.03125 L 45.921875 -76.03125 L 45.921875 -65.625 Z M 26.078125 -65.625 "/></g></g></g><g fill="#000000" fill-opacity="1"><g transform="translate(367.907657, 137.707732)"><g><path d="M 37.59375 1.25 C 31.769531 1.25 26.546875 0.253906 21.921875 -1.734375 C 17.296875 -3.722656 13.640625 -6.5 10.953125 -10.0625 C 8.273438 -13.625 6.796875 -17.71875 6.515625 -22.34375 L 19.5625 -22.34375 C 19.925781 -18.539062 21.703125 -15.4375 24.890625 -13.03125 C 28.085938 -10.632812 32.273438 -9.4375 37.453125 -9.4375 C 42.265625 -9.4375 46.054688 -10.5 48.828125 -12.625 C 51.609375 -14.75 53 -17.429688 53 -20.671875 C 53 -24.003906 51.519531 -26.476562 48.5625 -28.09375 C 45.601562 -29.707031 41.023438 -31.300781 34.828125 -32.875 C 29.179688 -34.351562 24.578125 -35.851562 21.015625 -37.375 C 17.453125 -38.90625 14.398438 -41.175781 11.859375 -44.1875 C 9.316406 -47.195312 8.046875 -51.148438 8.046875 -56.046875 C 8.046875 -59.929688 9.203125 -63.492188 11.515625 -66.734375 C 13.828125 -69.972656 17.109375 -72.539062 21.359375 -74.4375 C 25.617188 -76.332031 30.476562 -77.28125 35.9375 -77.28125 C 44.351562 -77.28125 51.148438 -75.148438 56.328125 -70.890625 C 61.503906 -66.640625 64.28125 -60.8125 64.65625 -53.40625 L 52.03125 -53.40625 C 51.75 -57.382812 50.148438 -60.578125 47.234375 -62.984375 C 44.328125 -65.390625 40.421875 -66.59375 35.515625 -66.59375 C 30.984375 -66.59375 27.375 -65.617188 24.6875 -63.671875 C 22.007812 -61.734375 20.671875 -59.191406 20.671875 -56.046875 C 20.671875 -53.546875 21.476562 -51.488281 23.09375 -49.875 C 24.71875 -48.257812 26.753906 -46.960938 29.203125 -45.984375 C 31.648438 -45.015625 35.050781 -43.929688 39.40625 -42.734375 C 44.851562 -41.253906 49.289062 -39.796875 52.71875 -38.359375 C 56.144531 -36.921875 59.082031 -34.769531 61.53125 -31.90625 C 63.976562 -29.039062 65.25 -25.296875 65.34375 -20.671875 C 65.34375 -16.503906 64.1875 -12.753906 61.875 -9.421875 C 59.5625 -6.097656 56.300781 -3.488281 52.09375 -1.59375 C 47.882812 0.300781 43.050781 1.25 37.59375 1.25 Z M 37.59375 1.25 "/></g></g></g><g fill="#000000" fill-opacity="1"><g transform="translate(426.303866, 137.707732)"><g><path d="M 14.703125 0.828125 C 12.296875 0.828125 10.257812 0 8.59375 -1.65625 C 6.9375 -3.320312 6.109375 -5.359375 6.109375 -7.765625 C 6.109375 -10.171875 6.9375 -12.207031 8.59375 -13.875 C 10.257812 -15.539062 12.296875 -16.375 14.703125 -16.375 C 17.015625 -16.375 18.976562 -15.539062 20.59375 -13.875 C 22.21875 -12.207031 23.03125 -10.171875 23.03125 -7.765625 C 23.03125 -5.359375 22.21875 -3.320312 20.59375 -1.65625 C 18.976562 0 17.015625 0.828125 14.703125 0.828125 Z M 14.703125 0.828125 "/></g></g></g></g></g></svg>